<svg xmlns="http://www.w3.org/2000/svg" xmlns:xlink="http://www.w3.org/1999/xlink" version="1.1" x="0px" y="0px" viewBox="0 0 110 137.5" enable-background="new 0 0 110 110" xml:space="preserve">
    <path d="M94.098,13.729c-0.834-0.831-1.938-1.287-3.115-1.287c-1.147,0-2.231,0.434-3.063,1.223  c-1.85,1.502-27.445,22.324-38.016,32.891c-9.041,9.041-16.372,18.779-18.552,21.755c-2.329,0.085-7.57,1.088-12.804,7.673  c-5.78,7.268,1.353,17.497,1.659,17.93L22.398,97l1.316-3.553c1.089-2.939,3.199-6.331,4.393-6.47  c4.148-0.481,7.004-1.216,9.33-3.542c2.177-2.178,2.278-5.204,2.104-6.982c3.006-2.201,12.712-9.518,21.729-18.533  c10.568-10.567,31.394-36.168,32.893-38.015C95.811,18.168,95.791,15.422,94.098,13.729z M31.351,72.313l4.166,4.166  c0.132,0.916,0.264,2.955-0.908,4.127c-1.343,1.344-3.1,1.949-6.962,2.397c-2.59,0.301-4.62,2.898-5.972,5.319  c-1.256-2.829-2.332-6.914,0.004-9.853C25.861,73.211,29.807,72.408,31.351,72.313z M91.252,17.162l-0.139,0.154  c-0.221,0.271-22.086,27.191-32.672,37.776c-8.414,8.414-17.435,15.307-20.792,17.789l-2.705-2.705  c2.483-3.359,9.383-12.387,17.787-20.793C63.32,38.799,90.238,16.936,90.509,16.715l0.154-0.139  c0.212-0.213,0.403-0.221,0.608-0.018C91.432,16.719,91.423,16.99,91.252,17.162z" />
</svg>
